<svg width="24" height="25" viewBox="0 0 24 25" fill="none" xmlns="http://www.w3.org/2000/svg">
<g id="fi_503059" clip-path="url(#clip0_97_171)">
<g id="Group">
<g id="Group_2">
<path id="Vector" d="M12 0.5C5.38331 0.5 0 5.88331 0 12.5C0 19.1167 5.38331 24.5 12 24.5C18.6167 24.5 24 19.1167 24 12.5C24 5.88331 18.6167 0.5 12 0.5ZM21.7857 7.49998H16.5564C16.0842 4.9693 15.2611 2.93647 14.2256 1.72686C17.5287 2.40828 20.2873 4.57953 21.7857 7.49998ZM16 12.5C16 13.9424 15.891 15.2803 15.7079 16.5H8.29209C8.10891 15.2803 7.99997 13.9424 7.99997 12.5C7.99997 11.0576 8.10891 9.7197 8.29209 8.50002H15.7079C15.891 9.71975 16 11.0576 16 12.5ZM12 1.49998C13.3525 1.49998 14.811 3.81589 15.5354 7.49998H8.46464C9.18905 3.81594 10.6475 1.49998 12 1.49998ZM9.77437 1.72686C8.73891 2.93647 7.91587 4.9693 7.44361 7.49998H2.21428C3.71269 4.57953 6.47133 2.40828 9.77437 1.72686ZM0.999984 12.5C0.999984 11.0878 1.27697 9.74159 1.76395 8.50002H7.28016C7.10161 9.74783 6.99998 11.0888 6.99998 12.5C6.99998 13.9112 7.10161 15.2522 7.28016 16.5H1.764C1.27697 15.2584 0.999984 13.9122 0.999984 12.5ZM2.21428 17.5H7.44361C7.91583 20.0307 8.73891 22.0635 9.77437 23.2731C6.47133 22.5917 3.71269 20.4205 2.21428 17.5ZM12 23.5C10.6475 23.5 9.18905 21.184 8.46464 17.5H15.5353C14.811 21.184 13.3525 23.5 12 23.5ZM14.2256 23.2731C15.2611 22.0635 16.0841 20.0307 16.5564 17.5H21.7857C20.2873 20.4205 17.5287 22.5917 14.2256 23.2731ZM16.7198 16.5C16.8984 15.2522 17 13.9112 17 12.5C17 11.0888 16.8984 9.74778 16.7198 8.50002H22.236C22.723 9.74159 23 11.0878 23 12.5C23 13.9122 22.723 15.2584 22.236 16.5H16.7198Z" fill="black"/>
</g>
</g>
</g>
<defs>
<clipPath id="clip0_97_171">
<rect width="24" height="24" fill="white" transform="translate(0 0.5)"/>
</clipPath>
</defs>
</svg>
