<svg width="36" height="36" viewBox="0 0 36 36" fill="none" xmlns="http://www.w3.org/2000/svg">
<circle cx="18" cy="18" r="17.5" stroke="#4C1D95"/>
<path d="M16.7798 25.03C16.6392 25.1704 16.4486 25.2493 16.2498 25.2493C16.0511 25.2493 15.8605 25.1704 15.7198 25.03L9.46983 18.78C9.32938 18.6394 9.25049 18.4487 9.25049 18.25C9.25049 18.0512 9.32938 17.8606 9.46983 17.72L15.7198 11.47C15.8115 11.3713 15.9281 11.2991 16.0574 11.2611C16.1866 11.2231 16.3237 11.2206 16.4542 11.254C16.5848 11.2874 16.7039 11.3553 16.799 11.4507C16.8941 11.5461 16.9618 11.6654 16.9948 11.796C17.0282 11.9264 17.0259 12.0633 16.9881 12.1925C16.9502 12.3217 16.8783 12.4383 16.7798 12.53L11.8098 17.5H26.2498C26.4487 17.5 26.6395 17.579 26.7802 17.7197C26.9208 17.8603 26.9998 18.0511 26.9998 18.25C26.9998 18.4489 26.9208 18.6397 26.7802 18.7803C26.6395 18.921 26.4487 19 26.2498 19H11.8098L16.7798 23.97C16.9203 24.1106 16.9992 24.3012 16.9992 24.5C16.9992 24.6987 16.9203 24.8894 16.7798 25.03Z" fill="#4C1D95"/>
</svg>
