<svg width="24" height="24" viewBox="0 0 24 24" fill="none" xmlns="http://www.w3.org/2000/svg">
<g id="Frame">
<path id="Vector" d="M10.7793 19.03C10.6387 19.1704 10.4481 19.2493 10.2493 19.2493C10.0506 19.2493 9.85997 19.1704 9.71934 19.03L3.46934 12.78C3.32889 12.6394 3.25 12.4487 3.25 12.25C3.25 12.0512 3.32889 11.8606 3.46934 11.72L9.71934 5.47C9.81101 5.37127 9.92762 5.2991 10.0569 5.26109C10.1861 5.22307 10.3232 5.22062 10.4537 5.254C10.5843 5.28737 10.7034 5.35533 10.7985 5.45072C10.8937 5.5461 10.9613 5.66539 10.9943 5.796C11.0278 5.92637 11.0254 6.06335 10.9876 6.19251C10.9498 6.32167 10.8778 6.43826 10.7793 6.53L5.80934 11.5H20.2493C20.4483 11.5 20.639 11.579 20.7797 11.7197C20.9203 11.8603 20.9993 12.0511 20.9993 12.25C20.9993 12.4489 20.9203 12.6397 20.7797 12.7803C20.639 12.921 20.4483 13 20.2493 13H5.80934L10.7793 17.97C10.9198 18.1106 10.9987 18.3012 10.9987 18.5C10.9987 18.6987 10.9198 18.8894 10.7793 19.03Z" fill="#F8FAFC"/>
</g>
</svg>
