<svg width="24" height="24" viewBox="0 0 24 24" fill="none" xmlns="http://www.w3.org/2000/svg">
<path d="M5.71934 5.71981C5.85997 5.57936 6.05059 5.50047 6.24934 5.50047C6.44809 5.50047 6.63871 5.57936 6.77934 5.71981L11.9993 10.9398L17.2193 5.71981C17.311 5.62109 17.4276 5.54892 17.5569 5.5109C17.6861 5.47289 17.8232 5.47044 17.9537 5.50381C18.0843 5.53719 18.2034 5.60515 18.2985 5.70053C18.3937 5.79592 18.4613 5.9152 18.4943 6.04581C18.5278 6.17619 18.5254 6.31316 18.4876 6.44233C18.4498 6.57149 18.3778 6.68807 18.2793 6.77981L13.0593 11.9998L18.2793 17.2198C18.3781 17.3115 18.4502 17.4281 18.4883 17.5573C18.5263 17.6866 18.5287 17.8237 18.4953 17.9542C18.462 18.0847 18.394 18.2038 18.2986 18.299C18.2032 18.3941 18.084 18.4618 17.9533 18.4948C17.823 18.5282 17.686 18.5259 17.5568 18.4881C17.4277 18.4502 17.3111 18.3783 17.2193 18.2798L11.9993 13.0598L6.77934 18.2798C6.63708 18.4122 6.44903 18.4843 6.25471 18.481C6.06039 18.4776 5.87494 18.3991 5.73734 18.2618C5.6001 18.1242 5.52154 17.9388 5.51818 17.7444C5.51483 17.5501 5.58693 17.3621 5.71934 17.2198L10.9393 11.9998L5.71934 6.77981C5.57889 6.63919 5.5 6.44856 5.5 6.24981C5.5 6.05106 5.57889 5.86044 5.71934 5.71981Z" fill="#020617"/>
</svg>
