<svg width="44" height="44" viewBox="0 0 44 44" fill="none" xmlns="http://www.w3.org/2000/svg">
<path d="M24.2362 34.8883C24.4941 35.1458 24.8435 35.2905 25.2079 35.2905C25.5723 35.2905 25.9218 35.1458 26.1796 34.8883L37.6379 23.43C37.8954 23.1722 38.04 22.8227 38.04 22.4583C38.04 22.094 37.8954 21.7445 37.6379 21.4867L26.1796 10.0283C26.0115 9.84734 25.7977 9.71503 25.5608 9.64534C25.3238 9.57564 25.0725 9.57115 24.8332 9.63234C24.5939 9.69352 24.3755 9.81812 24.2011 9.99299C24.0267 10.1679 23.9026 10.3866 23.8421 10.626C23.7808 10.865 23.7851 11.1161 23.8545 11.3529C23.9238 11.5897 24.0557 11.8035 24.2362 11.9717L33.3479 21.0833H6.87458C6.50991 21.0833 6.16017 21.2282 5.90231 21.4861C5.64444 21.7439 5.49958 22.0937 5.49958 22.4583C5.49958 22.823 5.64444 23.1727 5.90231 23.4306C6.16017 23.6885 6.50991 23.8333 6.87458 23.8333H33.3479L24.2362 32.945C23.9788 33.2028 23.8341 33.5523 23.8341 33.9167C23.8341 34.281 23.9788 34.6305 24.2362 34.8883Z" fill="#F8FAFC"/>
</svg>
