<svg width="68" height="64" viewBox="0 0 68 64" fill="none" xmlns="http://www.w3.org/2000/svg">
<path d="M45.4062 15.376L43.6025 17.1797C43.0952 17.687 42.2714 17.687 41.7626 17.1797C41.2553 16.6724 41.2553 15.8486 41.7626 15.3398L43.5664 13.5361C45.9511 11.1513 45.9511 7.27211 43.5664 4.88734C41.183 2.50258 37.3024 2.50258 34.9176 4.88734C34.4103 5.39609 33.5865 5.39609 33.0792 4.88734C30.6944 2.50258 26.8137 2.50258 24.4304 4.88734C22.0457 7.27211 22.0457 11.1513 24.4304 13.5361L33.9984 23.1041L38.6971 18.4053C39.2044 17.898 40.0282 17.898 40.537 18.4053C41.0443 18.9141 41.0443 19.7379 40.537 20.2452L34.9176 25.8646C34.6647 26.1175 34.3308 26.2447 33.9984 26.2447C33.666 26.2447 33.3321 26.1175 33.0792 25.8646L22.5905 15.376C19.1912 11.9766 19.1912 6.44683 22.5905 3.04746C25.698 -0.0585171 30.586 -0.3259 33.9984 2.2482C37.4108 -0.3259 42.2988 -0.0585171 45.4062 3.04746C48.8056 6.44683 48.8056 11.9766 45.4062 15.376Z" fill="#4C1D95"/>
<path d="M66.7747 25.8793C65.2744 24.2793 63.4808 23.8212 61.5845 24.5525C60.1479 25.106 58.9151 26.2276 57.8267 27.2148C57.6172 27.4055 57.4148 27.5905 57.2168 27.764C55.2093 29.5273 53.6845 31.0578 52.3158 32.4728L27.9883 32.4916C22.3891 32.243 16.8753 34.8171 13.843 37.8205L13.3978 36.5919C12.7547 34.8142 11.0492 33.6204 9.15295 33.6204C8.63264 33.6204 8.11811 33.71 7.6267 33.8878L3.15201 35.508C2.02322 35.9155 1.11846 36.7423 0.606816 37.8349C0.0937305 38.9276 0.0373632 40.1518 0.444941 41.2805L7.41279 60.5292C8.05596 62.3069 9.76287 63.5008 11.6591 63.5008C12.1809 63.5008 12.694 63.4112 13.1868 63.2334L17.6615 61.6132C18.7903 61.2042 19.6936 60.3775 20.2053 59.2862C20.6996 58.2312 20.7675 57.0532 20.4033 55.9562C23.1638 53.6278 24.362 53.1321 27.5185 52.2808C29.9871 51.6131 33.2463 51.363 36.3985 51.1202C40.0031 50.8427 43.7306 50.5551 46.6863 49.6489C51.9602 48.0301 55.8669 43.7101 59.6449 39.5317C60.687 38.3798 61.6713 37.29 62.6671 36.2783C62.8362 36.1078 63.027 35.9184 63.2337 35.7146C64.3278 34.6307 65.8265 33.1478 66.7992 31.5637C68.5336 28.7381 67.743 26.9127 66.7747 25.8793ZM17.8494 58.182C17.6326 58.6445 17.251 58.9943 16.7755 59.1677L12.3008 60.7865C12.0942 60.8616 11.8774 60.8992 11.6591 60.8992C10.8541 60.8992 10.13 60.3948 9.85826 59.6447L2.89186 40.3946C2.71986 39.9205 2.74443 39.4031 2.96268 38.9391C3.17947 38.4766 3.56104 38.1254 4.03799 37.9534L8.51123 36.3347C8.71936 36.2595 8.93471 36.2219 9.15295 36.2219C9.95654 36.2219 10.6806 36.7264 10.9524 37.4779L17.9188 56.7266C18.0908 57.2021 18.0662 57.7195 17.8494 58.182ZM64.5821 30.2037C63.7742 31.5189 62.404 32.8746 61.4039 33.8646C61.1885 34.0771 60.9891 34.2751 60.8142 34.4543C59.7779 35.5051 58.7763 36.6136 57.7155 37.7872C54.173 41.7026 50.5106 45.7538 45.9217 47.1615C43.2435 47.9839 39.6621 48.26 36.1991 48.5259C32.9269 48.7774 29.5434 49.0375 26.8392 49.7689C23.5844 50.6476 22.061 51.2677 19.4667 53.3576L14.8489 40.5998C16.8232 38.03 22.1954 34.8287 27.8987 35.0917C27.9189 35.0932 27.9391 35.0917 27.9608 35.0932L49.798 35.0758C48.4828 36.4113 47.0953 37.7439 45.3291 39.1877L35.5834 40.2703C34.8694 40.3498 34.3549 40.9915 34.4344 41.7069C34.5124 42.4209 35.1556 42.934 35.8696 42.8559L45.9954 41.7315C46.2426 41.704 46.4753 41.6072 46.6689 41.4511C49.441 39.2166 51.2983 37.2843 53.2653 35.2362L53.8044 34.6755C55.2367 33.1897 56.8107 31.5825 58.9338 29.718C59.1405 29.5374 59.3559 29.3423 59.577 29.1399C62.2422 26.719 63.4432 26.1293 64.877 27.657C65.1053 27.9027 65.643 28.4751 64.5821 30.2037Z" fill="#4C1D95"/>
<path d="M64.5828 30.2037C63.7749 31.5189 62.4047 32.8746 61.4046 33.8647C61.1892 34.0771 60.9898 34.2751 60.8149 34.4543C59.7786 35.5051 58.777 36.6136 57.7161 37.7872C54.1737 41.7026 50.5113 45.7538 45.9224 47.1615C43.2442 47.9839 39.6627 48.26 36.1998 48.5259C32.9276 48.7774 29.5441 49.0375 26.8399 49.7689C23.5851 50.6476 22.0617 51.2677 19.4674 53.3576L14.8496 40.5998C16.8239 38.03 22.1961 34.8287 27.8993 35.0917C27.9196 35.0932 27.9398 35.0917 27.9615 35.0932L49.7987 35.0758C48.4835 36.4113 47.096 37.7439 45.3298 39.1877L35.5841 40.2703C34.8701 40.3498 34.3555 40.9915 34.435 41.7069C34.5131 42.4209 35.1563 42.934 35.8702 42.8559L45.9961 41.7315C46.2432 41.704 46.4759 41.6072 46.6696 41.4511C49.4417 39.2166 51.2989 37.2843 53.266 35.2363L53.8051 34.6755C55.2374 33.1897 56.8114 31.5825 58.9345 29.718C59.1412 29.5374 59.3566 29.3423 59.5777 29.1399C62.2429 26.719 63.4439 26.1293 64.8777 27.657C65.106 27.9027 65.6437 28.4751 64.5828 30.2037Z" fill="#E0F2FE"/>
<path d="M17.85 58.1818C17.6332 58.6443 17.2516 58.994 16.7761 59.1675L12.3014 60.7862C12.0947 60.8614 11.8779 60.8989 11.6597 60.8989C10.8546 60.8989 10.1305 60.3945 9.85882 59.6444L2.89241 40.3943C2.72042 39.9202 2.74499 39.4028 2.96323 38.9389C3.18003 38.4764 3.56159 38.1252 4.03854 37.9532L8.51179 36.3344C8.71991 36.2593 8.93526 36.2217 9.1535 36.2217C9.9571 36.2217 10.6812 36.7261 10.9529 37.4777L17.9193 56.7263C18.0913 57.2018 18.0667 57.7193 17.85 58.1818Z" fill="#60A5FA"/>
<path d="M43.5651 13.536L41.7614 15.3397C41.2541 15.8485 41.2541 16.6723 41.7614 17.1796L40.5358 18.4052C40.027 17.8979 39.2032 17.8979 38.6959 18.4052L33.9972 23.1039L24.4292 13.536C22.0444 11.1512 22.0444 7.27197 24.4292 4.88721C26.8125 2.50244 30.6932 2.50244 33.0779 4.88721C33.5853 5.39596 34.4091 5.39596 34.9164 4.88721C37.3012 2.50244 41.1818 2.50244 43.5651 4.88721C45.9499 7.27197 45.9499 11.1512 43.5651 13.536Z" fill="#60A5FA"/>
</svg>
