<svg width="80" height="80" viewBox="0 0 160 160" fill="none" xmlns="http://www.w3.org/2000/svg">
<mask id="path-1-inside-1_4429_29094" fill="white">
<path d="M160 80C160 124.183 124.183 160 80 160C35.8172 160 0 124.183 0 80C0 35.8172 35.8172 0 80 0C124.183 0 160 35.8172 160 80Z"/>
</mask>
<path d="M144 80C144 115.346 115.346 144 80 144V176C133.019 176 176 133.019 176 80H144ZM80 144C44.6538 144 16 115.346 16 80H-16C-16 133.019 26.9807 176 80 176V144ZM16 80C16 44.6538 44.6538 16 80 16V-16C26.9807 -16 -16 26.9807 -16 80H16ZM80 16C115.346 16 144 44.6538 144 80H176C176 26.9807 133.019 -16 80 -16V16Z" fill="#E0F2FE" mask="url(#path-1-inside-1_4429_29094)"/>
<mask id="path-3-inside-2_4429_29094" fill="white">
<path d="M80 160C69.4942 160 59.0914 157.931 49.3853 153.91C39.6793 149.89 30.8601 143.997 23.4315 136.569C16.0028 129.14 10.11 120.321 6.08963 110.615C2.06926 100.909 -9.18441e-07 90.5058 0 80L15.9979 80C15.9979 88.4049 17.6534 96.7275 20.8698 104.493C24.0862 112.258 28.8005 119.313 34.7437 125.256C40.6868 131.199 47.7424 135.914 55.5075 139.13C63.2725 142.347 71.5951 144.002 80 144.002V160Z"/>
</mask>
<path d="M80 160L80 176H96L96 160H80ZM23.4315 136.569L34.7452 125.255L23.4315 136.569ZM6.08963 110.615L20.8717 104.492L6.08963 110.615ZM0 80L1.39877e-06 64L-16 64L-16 80L0 80ZM15.9979 80L31.9979 80L31.9979 64L15.9979 64L15.9979 80ZM20.8698 104.493L35.6518 98.3696L20.8698 104.493ZM34.7437 125.256L46.0574 113.943L34.7437 125.256ZM55.5075 139.13L61.6304 124.348L55.5075 139.13ZM80 144.002H96V128.002H80V144.002ZM80 144C71.5954 144 63.2731 142.345 55.5083 139.128L43.2624 168.692C54.9096 173.517 67.3931 176 80 176L80 144ZM55.5083 139.128C47.7434 135.912 40.6881 131.198 34.7452 125.255L12.1177 147.882C21.0322 156.797 31.6151 163.868 43.2624 168.692L55.5083 139.128ZM34.7452 125.255C28.8022 119.312 24.088 112.257 20.8717 104.492L-8.69244 116.738C-3.86799 128.385 3.20332 138.968 12.1177 147.882L34.7452 125.255ZM20.8717 104.492C17.6554 96.7269 16 88.4046 16 80L-16 80C-16 92.6069 -13.5169 105.09 -8.69244 116.738L20.8717 104.492ZM-1.39876e-06 96L15.9979 96L15.9979 64L1.39877e-06 64L-1.39876e-06 96ZM-0.00209808 80C-0.002099 90.506 2.06722 100.909 6.0877 110.615L35.6518 98.3696C33.2395 92.5457 31.9979 86.3037 31.9979 80L-0.00209808 80ZM6.0877 110.615C10.1082 120.322 16.0011 129.141 23.43 136.57L46.0574 113.943C41.6 109.485 38.0642 104.193 35.6518 98.3696L6.0877 110.615ZM23.43 136.57C30.8589 143.999 39.6782 149.892 49.3845 153.912L61.6304 124.348C55.8065 121.936 50.5148 118.4 46.0574 113.943L23.43 136.57ZM49.3845 153.912C59.0908 157.933 69.494 160.002 80 160.002V128.002C73.6963 128.002 67.4543 126.76 61.6304 124.348L49.3845 153.912ZM64 144.002V160H96V144.002H64Z" fill="#60A5FA" mask="url(#path-3-inside-2_4429_29094)"/>
</svg>
