<svg width="44" height="44" viewBox="0 0 75 75" fill="none" xmlns="http://www.w3.org/2000/svg">
<path fill-rule="evenodd" clip-rule="evenodd" d="M67.3712 15.0415C70.5892 20.1422 72.4549 26.1764 72.4552 32.5917C72.4559 41.9985 68.4791 50.5062 61.9444 56.4718C59.4457 58.7529 57.4251 58.9257 54.281 57.6974C51.2179 56.501 45.8659 55.0519 43.0394 56.9808C39.263 59.5574 40.5218 58.6983 39.263 59.5574C38.1203 60.2387 36.3979 60.4374 35.0641 60.8657C33.7979 64.8085 38.9797 63.6255 40.7627 62.8746C42.3223 62.2175 43.668 61.5667 45.4308 62.0119C45.6119 63.681 44.9921 64.8942 43.8443 65.8127C38.5272 70.0672 34.0348 72.307 26.7265 70.521C25.6546 70.2589 23.0033 68.7539 22.5153 70.8165C22.4253 71.1969 22.5347 71.7296 23.2382 72.1901C27.635 73.9995 32.4501 75 37.4995 75C58.2101 75 74.9995 58.2106 74.9995 37.5C74.9995 29.0441 72.2001 21.2424 67.4783 14.9697C67.4302 14.8989 67.3206 14.9645 67.3712 15.0415Z" fill="#01A0E2"/>
<path fill-rule="evenodd" clip-rule="evenodd" d="M34.3262 66.6505C35.642 67.1923 36.9896 67.903 38.1086 68.3926L38.644 68.6288C39.4391 68.2066 40.2071 67.7292 40.9519 67.2195C39.2057 66.5778 37.236 65.7319 36.2808 65.6081C35.4646 65.5021 34.4113 65.9089 34.3262 66.6505Z" fill="#01A0E2"/>
<path fill-rule="evenodd" clip-rule="evenodd" d="M27.7031 66.9267C29.5685 67.6543 31.9909 68.9237 33.7979 69.7829L33.8004 69.7857L33.8606 69.8144L34.5584 70.1478C35.0448 70.046 35.5315 69.9169 36.0194 69.7579C36.6803 69.5424 37.3229 69.2794 37.9486 68.9797C35.4096 67.864 31.7436 65.9794 30.0912 65.6707C29.1361 65.4919 27.8184 66.0522 27.7031 66.9267Z" fill="#01A0E2"/>
<path fill-rule="evenodd" clip-rule="evenodd" d="M23.7248 69.1542C24.2832 69.1004 24.8843 69.2191 25.388 69.3491C25.7199 69.4347 26.0468 69.5366 26.3732 69.6409C26.5991 69.7132 26.8338 69.7942 27.0639 69.8504C29.2084 70.3746 31.3153 70.5984 33.4252 70.3364C30.9167 69.1376 27.3209 67.3253 25.6999 66.9674C24.5606 66.7153 22.9557 67.415 23.4001 68.6911C23.4472 68.8261 23.5727 69.0074 23.7248 69.1542Z" fill="#01A0E2"/>
<path fill-rule="evenodd" clip-rule="evenodd" d="M34.3262 66.6505C35.642 67.1923 36.9896 67.903 38.1086 68.3926L38.644 68.6288C39.4391 68.2066 40.2071 67.7292 40.9519 67.2195C39.2057 66.5778 37.236 65.7319 36.2808 65.6081C35.4646 65.5021 34.4113 65.9089 34.3262 66.6505Z" fill="#01A0E2"/>
<path fill-rule="evenodd" clip-rule="evenodd" d="M27.7031 66.9267C29.5685 67.6543 31.9909 68.9237 33.7979 69.7829L33.8004 69.7857L33.8606 69.8144L34.5584 70.1478C35.0448 70.046 35.5315 69.9169 36.0194 69.7579C36.6803 69.5424 37.3229 69.2794 37.9486 68.9797C35.4096 67.864 31.7436 65.9794 30.0912 65.6707C29.1361 65.4919 27.8184 66.0522 27.7031 66.9267Z" fill="#01A0E2"/>
<path fill-rule="evenodd" clip-rule="evenodd" d="M23.7248 69.1542C24.2832 69.1004 24.8843 69.2191 25.388 69.3491C25.7199 69.4347 26.0468 69.5366 26.3732 69.6409C26.5991 69.7132 26.8338 69.7942 27.0639 69.8504C29.2084 70.3746 31.3153 70.5984 33.4252 70.3364C30.9167 69.1376 27.3209 67.3253 25.6999 66.9674C24.5606 66.7153 22.9557 67.415 23.4001 68.6911C23.4472 68.8261 23.5727 69.0074 23.7248 69.1542Z" fill="#01A0E2"/>
<path fill-rule="evenodd" clip-rule="evenodd" d="M7.62826 59.9585C4.41029 54.8577 2.54459 48.8236 2.54427 42.4083C2.54374 33.0014 6.5204 24.4938 13.0551 18.5282C15.5538 16.2471 17.5744 16.0743 20.7185 17.3026C23.7815 18.499 29.1336 19.9481 31.9601 18.0192C35.7365 15.4427 34.4777 16.3017 35.7365 15.4426C36.8791 14.7613 38.6016 14.5625 39.9354 14.1343C41.2016 10.1915 36.0198 11.3744 34.2368 12.1254C32.6772 12.7825 31.3315 13.4333 29.5687 12.9881C29.3875 11.319 30.0073 10.1058 31.1551 9.18733C36.4723 4.93279 40.9647 2.693 48.273 4.47901C49.3449 4.74116 51.9962 6.24615 52.4842 4.18345C52.5742 3.80312 52.4648 3.27036 51.7613 2.80991C47.3645 1.00044 42.5494 0 37.5 0C16.7893 0 0 16.7893 0 37.5C0 45.9559 2.7994 53.7576 7.52123 60.0303C7.56928 60.1011 7.67889 60.0355 7.62826 59.9585Z" fill="#01A0E2"/>
<path fill-rule="evenodd" clip-rule="evenodd" d="M40.6746 8.34949C39.3588 7.8077 38.0111 7.09706 36.8922 6.6074L36.3567 6.37122C35.5617 6.79342 34.7937 7.27084 34.0488 7.78057C35.7951 8.42224 37.7648 9.26813 38.72 9.39192C39.5362 9.49796 40.5895 9.09117 40.6746 8.34949Z" fill="#01A0E2"/>
<path fill-rule="evenodd" clip-rule="evenodd" d="M47.2963 8.07331C45.4308 7.34574 43.0085 6.07623 41.2015 5.21715L41.199 5.21432L41.1388 5.18568L40.441 4.85223C39.9546 4.95405 39.4679 5.08312 38.98 5.24215C38.3191 5.4576 37.6765 5.72063 37.0508 6.02039C39.5898 7.13605 43.2558 9.02062 44.9082 9.32934C45.8633 9.50816 47.1809 8.94778 47.2963 8.07331Z" fill="#01A0E2"/>
<path fill-rule="evenodd" clip-rule="evenodd" d="M51.2765 5.84583C50.7182 5.89966 50.1171 5.78092 49.6133 5.65092C49.2814 5.5653 48.9546 5.46335 48.6282 5.35906C48.4023 5.28685 48.1676 5.20578 47.9375 5.14955C45.793 4.62539 43.6861 4.40166 41.5762 4.66363C44.0847 5.86241 47.6804 7.67466 49.3015 8.03256C50.4407 8.28465 52.0457 7.58495 51.6013 6.30895C51.5542 6.17391 51.4287 5.99255 51.2765 5.84583Z" fill="#01A0E2"/>
<path fill-rule="evenodd" clip-rule="evenodd" d="M40.6746 8.34949C39.3588 7.8077 38.0111 7.09706 36.8922 6.6074L36.3567 6.37122C35.5617 6.79342 34.7937 7.27084 34.0488 7.78057C35.7951 8.42224 37.7648 9.26813 38.72 9.39192C39.5362 9.49796 40.5895 9.09117 40.6746 8.34949Z" fill="#01A0E2"/>
<path fill-rule="evenodd" clip-rule="evenodd" d="M47.2963 8.07331C45.4308 7.34574 43.0085 6.07623 41.2015 5.21715L41.199 5.21432L41.1388 5.18568L40.441 4.85223C39.9546 4.95405 39.4679 5.08312 38.98 5.24215C38.3191 5.4576 37.6765 5.72063 37.0508 6.02039C39.5898 7.13605 43.2558 9.02062 44.9082 9.32934C45.8633 9.50816 47.1809 8.94778 47.2963 8.07331Z" fill="#01A0E2"/>
<path fill-rule="evenodd" clip-rule="evenodd" d="M51.2765 5.84583C50.7182 5.89966 50.1171 5.78092 49.6133 5.65092C49.2814 5.5653 48.9546 5.46335 48.6282 5.35906C48.4023 5.28685 48.1676 5.20578 47.9375 5.14955C45.793 4.62539 43.6861 4.40166 41.5762 4.66363C44.0847 5.86241 47.6804 7.67466 49.3015 8.03256C50.4407 8.28465 52.0457 7.58495 51.6013 6.30895C51.5542 6.17391 51.4287 5.99255 51.2765 5.84583Z" fill="#01A0E2"/>
<path fill-rule="evenodd" clip-rule="evenodd" d="M13.9024 25.9916C13.7438 26.0897 13.5278 26.1739 13.3164 26.2435C12.5258 26.5159 11.9026 26.7968 11.427 27.5586C10.9885 28.244 10.8328 29.1549 10.9661 30.0529C11.1072 31.0033 11.6412 31.4756 12.4579 31.2853C13.596 31.02 14.1357 29.8499 13.9916 28.8324C13.8885 28.1377 13.4061 27.6873 12.6831 27.8558C12.2011 27.9681 11.8431 28.3093 11.6327 28.7583L11.606 28.7646C11.6435 28.4574 11.768 28.0826 11.9376 27.8261C12.3047 27.2659 12.8258 27.0902 13.3773 26.8871C13.5485 26.8269 13.7253 26.7585 13.8849 26.6671L13.9024 25.9916ZM12.4603 30.6947C12.052 30.7898 11.8206 30.4437 11.7603 30.0374C11.7058 29.6704 11.7623 29.3045 11.9081 29.0265C12.0413 28.7581 12.2648 28.5365 12.519 28.4772C12.9274 28.382 13.1369 28.7198 13.1913 29.0868C13.274 29.6439 13.103 30.5449 12.467 30.6931L12.4603 30.6947ZM15.0395 27.3066L14.9834 28.6556C14.9513 29.2327 14.8529 29.6896 14.6143 29.9487C14.5275 30.0639 14.3822 30.1586 14.2035 30.2139L14.3476 30.811C14.7425 30.7189 14.9746 30.5563 15.1606 30.3164C15.5128 29.9359 15.6558 29.3601 15.7007 28.4952L15.7372 27.7612L16.6341 27.5521L16.524 30.2631L17.3005 30.0821L17.4427 26.7466L15.0395 27.3066ZM21.0492 29.2084C20.9794 28.8315 20.9435 28.216 20.9671 27.7223L21.0482 25.981C20.7888 25.96 20.3975 25.9834 20.0427 26.0661C18.5231 26.4202 17.9187 27.7613 18.0802 28.8493C18.1756 29.4916 18.6232 29.8485 19.2056 29.7127C19.6206 29.616 20.0189 29.3129 20.2604 28.6532L20.2805 28.6485C20.2869 28.925 20.3048 29.1853 20.3263 29.377L21.0492 29.2084ZM20.2061 27.5403C20.1726 28.3888 19.7904 28.939 19.4288 29.0233C19.0874 29.1028 18.9194 28.8572 18.8698 28.523C18.7618 27.7954 19.1998 26.8729 19.9227 26.7044C20.0633 26.6716 20.159 26.6629 20.2422 26.6638L20.2061 27.5403ZM21.9993 26.3696C22.1874 26.2376 22.4235 26.1012 22.6845 26.0404C22.9398 25.9877 23.0911 26.0745 23.1146 26.2318C23.1485 26.4612 22.8353 26.6833 22.522 26.9055C22.0138 27.2613 21.5019 27.6383 21.5952 28.2675C21.6769 28.8181 22.129 29.0179 22.7928 28.8699C23.1686 28.7892 23.5728 28.573 23.8249 28.3582L23.6448 27.8442C23.4651 27.9877 23.1566 28.1953 22.8353 28.2701C22.5532 28.3291 22.4209 28.2311 22.3956 28.0607C22.3586 27.8116 22.6184 27.6018 22.9747 27.3425C23.5077 26.9674 23.9565 26.5848 23.8748 26.0343C23.8009 25.5361 23.4108 25.288 22.7538 25.4343C22.3789 25.5217 22.0397 25.7092 21.8229 25.8818L21.9993 26.3696ZM25.8664 28.1605C26.9776 27.9015 27.6093 26.7914 27.4478 25.7033C27.3438 25.002 26.7971 24.492 25.9202 24.6964C24.8023 24.9569 24.1715 26.0736 24.332 27.1551C24.4448 27.9154 25.0363 28.3539 25.8597 28.162L25.8664 28.1605ZM25.8725 27.5488C25.4775 27.6408 25.1976 27.3873 25.1324 26.9482C25.0439 26.3517 25.2847 25.4548 25.9074 25.3097C26.3826 25.1989 26.5968 25.5694 26.6454 25.8972C26.7398 26.5329 26.4683 27.4099 25.8792 27.5472L25.8725 27.5488ZM28.2754 23.2999C28.5022 23.2878 28.6982 23.2556 28.8886 23.2316C29.3152 23.1661 29.6205 23.1696 29.8724 23.3278C30.1312 23.4845 30.2727 23.8313 30.3145 24.1132C30.3252 24.1852 30.3379 24.2704 30.3428 24.3505L30.3227 24.3553C30.1363 24.0325 29.8135 23.8636 29.3449 23.9729C28.3073 24.2147 27.826 25.405 27.9631 26.3292C28.0818 27.1288 28.6177 27.5193 29.4142 27.3337C30.8669 26.9952 31.1391 25.2364 30.966 24.0698C30.8803 23.493 30.6572 22.9686 30.248 22.7317C29.926 22.5219 29.547 22.4882 29.0304 22.5543C28.7722 22.5874 28.4384 22.672 28.1609 22.6688L28.2754 23.2999ZM29.4501 26.7353C29.0417 26.8305 28.8305 26.5272 28.7741 26.147C28.6848 25.5914 28.8557 24.6904 29.485 24.5437C29.8933 24.4486 30.1171 24.7897 30.1716 25.1567C30.2368 25.6434 30.0325 26.5996 29.4568 26.7338L29.4501 26.7353ZM33.3948 23.0291L33.3122 24.8995C33.2975 25.1268 33.3047 25.315 33.33 25.4853C33.4272 26.1408 33.8391 26.3025 34.3144 26.1917C34.7216 26.0968 35.0968 25.7856 35.3501 25.2994L35.3635 25.2962L35.3724 25.8705L36.0698 25.708C36.0691 25.4234 36.0662 25.0781 36.0835 24.6808L36.1852 22.3787L35.4019 22.5612L35.3359 24.177C35.3012 24.8768 34.9484 25.393 34.588 25.477C34.2802 25.5486 34.1459 25.3833 34.107 25.1212C34.0885 24.9966 34.0853 24.8347 34.0953 24.6696L34.1702 22.8483L33.3948 23.0291ZM33.968 21.5324C33.9969 22.0073 34.259 22.3259 34.8469 22.1889C35.3635 22.0686 35.6812 21.6894 35.7219 21.1237L35.1997 21.2455C35.1679 21.497 35.0716 21.7433 34.844 21.7963C34.6298 21.8462 34.4945 21.681 34.4891 21.4111L33.968 21.5324ZM37.0766 22.171L36.9345 25.5065L37.7109 25.3256L37.7755 23.8933L38.9804 23.6125L38.9159 25.0448L39.6991 24.8622L39.8413 21.5268L39.0648 21.7078L39.0056 22.9896L37.8007 23.2704L37.8532 21.9901L37.0766 22.171ZM40.6848 21.3302L40.6022 23.2007C40.5875 23.4279 40.5946 23.616 40.6199 23.7865C40.7172 24.4419 41.129 24.6036 41.6043 24.4928C42.0115 24.398 42.3867 24.0868 42.64 23.6005L42.6534 23.5974L42.6624 24.1716L43.3598 24.0092C43.3591 23.7245 43.3562 23.3793 43.3735 22.9819L43.4751 20.6799L42.6919 20.8624L42.6258 22.4781C42.5911 23.1779 42.2383 23.6941 41.8779 23.778C41.5701 23.8498 41.4358 23.6845 41.397 23.4223C41.3785 23.2977 41.3752 23.1357 41.3853 22.9706L41.4602 21.1494L40.6848 21.3302ZM44.333 20.48L44.2505 22.3504C44.2357 22.5777 44.2429 22.7658 44.2682 22.9362C44.3655 23.5917 44.7773 23.7534 45.2526 23.6427C45.6598 23.5478 46.035 23.2365 46.2883 22.7503L46.3017 22.7471L46.3107 23.3214L47.008 23.1589C47.0073 22.8743 47.0045 22.5291 47.0218 22.1317L47.1234 19.8296L46.3402 20.0122L46.2742 21.6279C46.2394 22.3276 45.8866 22.8439 45.5263 22.9278C45.2184 22.9996 45.0841 22.8342 45.0452 22.572C45.0267 22.4475 45.0235 22.2855 45.0336 22.1205L45.1084 20.2992L44.333 20.48ZM44.9062 18.9834C44.9351 19.4581 45.1972 19.7768 45.7851 19.6398C46.3017 19.5194 46.6195 19.1403 46.6601 18.5747L46.1379 18.6963C46.1061 18.9479 46.0098 19.1942 45.7822 19.2472C45.5681 19.2971 45.4328 19.1319 45.4273 18.862L44.9062 18.9834ZM50.6024 23.664L51.3254 23.4955L51.3798 21.8554L51.3931 21.8522C51.5084 22.022 51.7526 22.1278 52.0271 22.0638C52.9642 21.8454 53.3669 20.5446 53.217 19.5352C53.1256 18.9191 52.7972 18.4328 52.1947 18.5732C51.8734 18.6481 51.6348 18.9071 51.5071 19.12L51.4938 19.1232L51.5935 17.2759L50.8907 17.4396L50.8147 19.2611L50.8013 19.2643C50.7081 19.1029 50.5011 18.968 50.2266 19.032C49.256 19.2582 48.8488 20.6211 48.9957 21.6109C49.0998 22.3121 49.49 22.6552 49.972 22.5429C50.3268 22.4602 50.5377 22.2483 50.6758 22.0126L50.6826 22.0112L50.6024 23.664ZM50.3945 19.6031C50.5753 19.561 50.7287 19.7083 50.7606 19.8772C50.7705 19.9901 50.7784 20.09 50.7682 20.2076L50.7206 21.1004C50.7041 21.4093 50.55 21.7707 50.2353 21.844C49.9876 21.9018 49.813 21.7051 49.7595 21.3447C49.6769 20.7874 49.8457 19.7311 50.3878 19.6047L50.3945 19.6031ZM51.9993 19.2631C52.2738 19.1991 52.4045 19.4738 52.4522 19.7949C52.5378 20.3718 52.3736 21.3187 51.9032 21.4622C51.6909 21.5252 51.5354 21.3647 51.497 21.2449C51.4604 21.1856 51.4381 21.0823 51.4417 20.9662C51.4535 20.7193 51.4645 20.4659 51.4772 20.2255C51.4872 20.013 51.5108 19.8448 51.5677 19.6688C51.6667 19.449 51.8119 19.3068 51.9926 19.2646L51.9993 19.2631ZM55.2671 21.3089C56.3784 21.0499 57.01 19.9397 56.8485 18.8517C56.7445 18.1504 56.1978 17.6404 55.3209 17.8447C54.2029 18.1053 53.5722 19.222 53.7327 20.3034C53.8456 21.0638 54.437 21.5023 55.2604 21.3104L55.2671 21.3089ZM55.2733 20.6971C54.8782 20.7892 54.5983 20.5357 54.5332 20.0966C54.4446 19.5001 54.6855 18.6032 55.3081 18.4581C55.7833 18.3473 55.9976 18.7178 56.0462 19.0455C56.1406 19.6813 55.869 20.5583 55.2799 20.6956L55.2733 20.6971ZM57.6142 17.3849L57.4722 20.7204L58.2486 20.5395L58.3131 19.1072L59.518 18.8263L59.4536 20.2586L60.2368 20.0761L60.379 16.7406L59.6024 16.9216L59.5433 18.2034L58.3384 18.4842L58.3908 17.2039L57.6142 17.3849ZM61.3445 15.5934C61.5713 15.5812 61.7673 15.549 61.9577 15.5251C62.3842 15.4596 62.6896 15.463 62.9415 15.6213C63.2004 15.778 63.3418 16.1248 63.3836 16.4066C63.3943 16.4786 63.407 16.5639 63.4119 16.6441L63.3918 16.6487C63.2054 16.3261 62.8826 16.1572 62.414 16.2663C61.3764 16.5081 60.8951 17.6986 61.0322 18.6227C61.1509 19.4223 61.6868 19.8128 62.4833 19.6271C63.936 19.2886 64.2082 17.5299 64.0351 16.3633C63.9495 15.7865 63.7262 15.2622 63.3171 15.0252C62.9951 14.8154 62.6161 14.7816 62.0996 14.8477C61.8413 14.8809 61.5075 14.9654 61.23 14.9623L61.3445 15.5934ZM62.5192 19.0288C62.1108 19.124 61.8996 18.8206 61.8432 18.4405C61.7539 17.8849 61.9249 16.9839 62.5541 16.8372C62.9624 16.7421 63.1862 17.0832 63.2407 17.4503C63.3059 17.9369 63.1016 18.8931 62.5259 19.0273L62.5192 19.0288ZM32.4025 26.5627L32.5447 23.2272L31.7682 23.4081L31.6193 26.7452L32.4025 26.5627ZM32.2223 22.8276C32.4833 22.7668 32.6713 22.5399 32.6362 22.2565C32.6001 22.014 32.4085 21.8892 32.1608 21.9469C31.9064 22.0062 31.7204 22.2462 31.7603 22.515C31.7963 22.7575 31.9812 22.8838 32.2155 22.8292L32.2223 22.8276Z" fill="#3E348F"/>
<path fill-rule="evenodd" clip-rule="evenodd" d="M16.2012 36.6927C16.5236 36.1504 16.9351 35.6342 17.4352 35.1441C19.6523 32.972 24.2882 31.1928 27.3495 31.2573C28.1309 31.2737 28.7712 31.3979 29.2705 31.6293C29.77 31.8606 30.1468 32.1787 30.4012 32.5835C30.6553 32.9882 30.8275 33.4426 30.9173 33.9465C31.0352 34.6082 30.991 35.2427 30.7845 35.85C30.5783 36.4574 30.2756 37.0056 29.877 37.4945C29.4784 37.9835 29.022 38.3959 28.5078 38.7317C27.9935 39.0677 27.4822 39.296 26.9739 39.417C26.3534 39.5647 25.6654 39.6796 25.031 39.666L24.8674 43.8079L21.7023 44.7254L22.0749 35.066C21.46 35.3327 20.8974 35.6445 20.3867 36.0014C19.8764 36.3583 19.4448 36.7401 19.0923 37.147C18.7913 37.4942 18.5591 37.8551 18.3957 38.2295L16.2012 36.6927ZM27.5215 35.1488C27.4466 34.7289 27.2346 34.4373 26.8852 34.2741C26.5361 34.1109 25.9885 34.0744 25.2427 34.1642L25.108 37.4967C25.3416 37.5069 25.5908 37.4803 25.8557 37.4172C26.131 37.3516 26.3826 37.2453 26.6103 37.0981C26.838 36.9509 27.0273 36.7745 27.1783 36.5688C27.3293 36.3631 27.4356 36.1382 27.4967 35.8936C27.5583 35.6491 27.5664 35.4009 27.5215 35.1488Z" fill="#0280CA"/>
<path fill-rule="evenodd" clip-rule="evenodd" d="M31.2367 41.4507C31.4785 41.3822 31.7364 41.266 32.0109 41.1022C32.2854 40.9384 32.5631 40.7464 32.8439 40.5263C33.1249 40.3061 33.3986 40.0605 33.6648 39.789C33.9311 39.5177 34.1823 39.239 34.4184 38.9529C34.5247 38.8071 34.587 38.6144 34.6051 38.3747C34.6231 38.1351 34.6069 37.8736 34.5562 37.59C34.4982 37.2645 34.403 36.915 34.2701 36.5416C34.1373 36.1681 33.9802 35.7978 33.7988 35.4305C33.6175 35.0633 33.4255 34.7148 33.2235 34.3853C33.0212 34.0558 32.8183 33.7701 32.6153 33.5284C32.4121 33.2867 32.2187 33.1 32.0352 32.9687C31.8518 32.8371 31.691 32.7878 31.5535 32.8206C31.5005 32.8332 31.4216 32.8546 31.3165 32.8851C31.2115 32.9156 31.107 32.9488 31.003 32.9845C30.8884 33.0227 30.7569 33.0593 30.6086 33.0946L30.3223 31.4881C30.6961 31.3552 31.0593 31.2251 31.4119 31.0974C31.7135 30.9927 32.026 30.8882 32.3496 30.7838C32.6734 30.6793 32.9569 30.5983 33.2005 30.5403C33.5606 30.4546 33.9274 30.5151 34.3009 30.7216C34.6746 30.9283 35.0292 31.2461 35.3652 31.6752C35.7011 32.1043 36.0007 32.624 36.2641 33.2346C36.5276 33.8451 36.7238 34.5127 36.8529 35.2373C36.8679 35.3213 36.8798 35.4033 36.8885 35.4833C36.8973 35.5632 36.909 35.6453 36.924 35.7293C37.0946 35.0757 37.2145 34.4315 37.2834 33.7966C37.3525 33.1617 37.3935 32.5717 37.4068 32.0268C37.4201 31.4817 37.4189 30.9949 37.4033 30.5661C37.3875 30.1376 37.375 29.804 37.3656 29.5654L40.7297 28.9289C40.738 29.2224 40.6985 29.6669 40.6115 30.2624C40.5243 30.8578 40.3881 31.5332 40.2025 32.2891C40.0171 33.0447 39.7833 33.8392 39.5012 34.6726C39.2193 35.5059 38.8926 36.3062 38.5214 37.0732C38.1242 37.8793 37.6663 38.6396 37.1478 39.3541C36.6292 40.0686 36.0743 40.718 35.4828 41.302C34.8914 41.8862 34.2692 42.39 33.6159 42.8137C32.9628 43.2374 32.3083 43.5601 31.6522 43.7818L31.2367 41.4507Z" fill="#0280CA"/>
<path fill-rule="evenodd" clip-rule="evenodd" d="M42.2634 36.8304C42.308 35.78 42.3446 34.8078 42.373 33.9144C42.3836 33.5397 42.3936 33.1625 42.4031 32.7825C42.4128 32.4026 42.4163 32.0515 42.4142 31.729C42.4117 31.4067 42.4088 31.1256 42.4046 30.8858C42.4005 30.6458 42.389 30.4735 42.3703 30.3685C42.3572 30.2949 42.3392 30.2555 42.3162 30.25C42.2932 30.2445 42.2657 30.2456 42.2339 30.2532C42.181 30.2657 42.11 30.2853 42.0209 30.312C41.9317 30.3387 41.8353 30.3699 41.7311 30.4057C41.6165 30.4439 41.4903 30.4793 41.3528 30.512L41.0664 28.9055C41.4401 28.7727 41.8033 28.6426 42.1559 28.5148C42.4575 28.4101 42.77 28.3057 43.0938 28.2012C43.4174 28.0968 43.7009 28.0157 43.9445 27.9577C44.4635 27.8342 44.852 27.7992 45.11 27.8527C45.3679 27.9062 45.5277 28.1064 45.5894 28.4529C45.6157 28.5999 45.6258 28.8739 45.62 29.2748C45.6143 29.6758 45.6037 30.2665 45.5882 31.0474C46.1942 30.4216 46.6781 29.7919 47.0401 29.1584C47.4019 28.525 47.5625 27.8464 47.5218 27.1227L50.8384 26.4976C50.8702 26.8622 50.8363 27.2287 50.7363 27.5972C50.6365 27.9659 50.4887 28.3294 50.2932 28.688C50.0976 29.0464 49.8595 29.3987 49.5788 29.7445C49.2983 30.0905 48.9951 30.4337 48.6693 30.774C49.512 32.0948 50.1398 32.7062 50.5529 32.6079C50.8282 32.5423 51.1095 32.4481 51.3968 32.325C51.5518 32.2662 51.706 32.202 51.8593 32.1328L52.1766 33.9127C51.9342 34.1018 51.6731 34.2788 51.3935 34.4439C51.1543 34.5883 50.8682 34.7332 50.5353 34.878C50.2022 35.023 49.8504 35.1395 49.4797 35.2277C48.8442 35.379 48.2875 35.2597 47.8096 34.8699C47.3316 34.4801 46.8262 33.8124 46.2933 32.8664L45.5215 33.4606L45.4604 35.9053L42.2634 36.8304Z" fill="#0280CA"/>
<path fill-rule="evenodd" clip-rule="evenodd" d="M63.7895 31.1487C63.5472 31.3377 63.2863 31.5147 63.0065 31.6798C62.7673 31.8243 62.4839 31.9684 62.1563 32.112C61.8285 32.2558 61.474 32.3729 61.0927 32.4637C60.3619 32.6376 59.7978 32.6159 59.4003 32.3987C59.0027 32.1812 58.7666 31.8626 58.6917 31.4425C58.6561 31.243 58.6425 30.9342 58.6508 30.5164C58.6592 30.0984 58.7021 29.612 58.7799 29.057C58.5619 29.3827 58.3542 29.6729 58.1568 29.9278C57.8703 30.3026 57.5548 30.7005 57.2103 31.122C56.866 31.5432 56.5362 31.9391 56.2214 32.3096C55.9065 32.6802 55.6234 32.9965 55.3721 33.2588C55.1208 33.5212 54.9459 33.6859 54.8475 33.7532L53.257 34.2137C53.286 33.1998 53.3114 32.2579 53.3329 31.388C53.3435 31.0133 53.3514 30.6393 53.3565 30.2659C53.3617 29.8925 53.3631 29.5445 53.361 29.222C53.3588 28.8997 53.3514 28.6113 53.3393 28.3569C53.3271 28.1026 53.3089 27.9073 53.2845 27.7708C53.2714 27.6972 53.2534 27.6578 53.2303 27.6523C53.2072 27.6468 53.1797 27.6479 53.1479 27.6555C53.095 27.6681 53.0187 27.6889 52.919 27.7181C52.8194 27.7473 52.7228 27.7786 52.6294 27.8118C52.5148 27.85 52.3939 27.8841 52.2668 27.9144L51.9805 26.3078C52.3543 26.175 52.7175 26.0448 53.0701 25.9171C53.3715 25.8124 53.6842 25.708 54.0078 25.6036C54.3314 25.4991 54.6151 25.418 54.8587 25.36C55.3775 25.2365 55.7502 25.2053 55.9763 25.2664C56.2026 25.3274 56.3464 25.5314 56.4082 25.8779C56.4512 26.1194 56.4857 26.5599 56.5113 27.1997C56.537 27.8395 56.4747 28.6041 56.324 29.4938L57.0947 28.5222C57.413 28.14 57.7188 27.7497 58.0123 27.3515C58.3057 26.9533 58.5818 26.5674 58.8409 26.1937C59.1 25.8201 59.3385 25.4706 59.5565 25.145C59.7745 24.8194 59.961 24.5342 60.1162 24.2893L61.8655 23.7908C61.7897 24.7283 61.7273 25.5861 61.6782 26.364C61.6497 26.6991 61.6265 27.0332 61.6084 27.3658C61.5905 27.6986 61.5788 28.0051 61.5736 28.2853C61.5683 28.5658 61.565 28.8102 61.5634 29.0185C61.562 29.2268 61.5696 29.3783 61.5864 29.4727C61.6444 29.7984 61.8377 29.922 62.1659 29.8438C62.4519 29.7757 62.7384 29.6803 63.0257 29.5571C63.1809 29.4983 63.3296 29.4355 63.4723 29.3688L63.7895 31.1487Z" fill="#0280CA"/>
<path fill-rule="evenodd" clip-rule="evenodd" d="M50.3345 37.6512C50.2915 37.4301 50.3064 37.2091 50.3792 36.9877C50.452 36.7665 50.5618 36.5648 50.7086 36.3826C50.8552 36.2004 51.0341 36.0412 51.2449 35.9052C51.4558 35.769 51.6723 35.6768 51.8949 35.6283C52.3502 35.5291 52.7409 35.5793 53.0668 35.7787C53.3925 35.9783 53.6005 36.3087 53.6903 36.77C53.7334 36.991 53.7184 37.2121 53.6456 37.4333C53.5728 37.6546 53.463 37.8563 53.3165 38.0385C53.1697 38.2208 52.9935 38.3794 52.788 38.5143C52.5825 38.6492 52.3685 38.7409 52.146 38.7894C51.6906 38.8886 51.2973 38.839 50.9661 38.6405C50.6349 38.4423 50.4244 38.1125 50.3345 37.6512Z" fill="#0280CA"/>
<path fill-rule="evenodd" clip-rule="evenodd" d="M55.5483 46.8993C55.3166 47.0859 55.0608 47.2617 54.7812 47.4267C54.542 47.5711 54.2559 47.716 53.923 47.8609C53.59 48.0058 53.2381 48.1223 52.8674 48.2106C52.179 48.3744 51.6114 48.3645 51.1647 48.1807C50.7179 47.9971 50.4534 47.6741 50.3711 47.212C50.3281 46.9705 50.3147 46.6179 50.3315 46.1543C50.3483 45.6904 50.3723 45.2059 50.4037 44.7004C50.435 44.1948 50.4599 43.7154 50.4785 43.2621C50.4971 42.8089 50.4858 42.4669 50.4447 42.2358C50.4315 42.1622 50.4134 42.1229 50.3904 42.1174C50.3673 42.1119 50.34 42.1129 50.3082 42.1206C50.2552 42.1332 50.1841 42.1527 50.0951 42.1794C50.006 42.2061 49.9094 42.2374 49.8054 42.2731C49.6908 42.3114 49.5646 42.3467 49.4269 42.3795L49.1406 40.773C49.4932 40.6452 49.8405 40.5188 50.1825 40.3936C50.4735 40.2914 50.7781 40.1889 51.0964 40.0857C51.4148 39.9825 51.6958 39.902 51.9394 39.844C52.4583 39.7205 52.8468 39.6855 53.1047 39.7391C53.3627 39.7926 53.5225 39.9927 53.5842 40.3392C53.6104 40.4863 53.6205 40.6973 53.6143 40.9724C53.6083 41.2476 53.5931 41.5495 53.5687 41.8781C53.5446 42.2068 53.517 42.5473 53.4858 42.8995C53.4547 43.2516 53.4258 43.5842 53.3986 43.8973C53.3716 44.2101 53.3517 44.4858 53.3391 44.7241C53.3263 44.9625 53.3284 45.129 53.3452 45.2235C53.3714 45.3705 53.4296 45.4799 53.5196 45.5515C53.6097 45.623 53.7448 45.6374 53.9247 45.5945C54.0094 45.5744 54.1245 45.5389 54.27 45.4878C54.4155 45.4367 54.5605 45.3831 54.7051 45.3267C54.8707 45.2654 55.0462 45.1962 55.2311 45.1195L55.5483 46.8993Z" fill="#0280CA"/>
<path fill-rule="evenodd" clip-rule="evenodd" d="M61.8415 43.0328C61.8153 42.8859 61.7686 42.7628 61.7012 42.6639C61.634 42.5649 61.5673 42.485 61.5012 42.4242C61.399 42.4705 61.3162 42.5011 61.2526 42.5162C60.766 42.6977 60.3398 42.8456 59.9738 42.9601C59.6078 43.0747 59.325 43.161 59.1258 43.2194C59.1682 43.3955 59.2392 43.562 59.339 43.7187C59.4387 43.8757 59.5611 44.0053 59.7063 44.1074C59.8515 44.2097 60.0185 44.2794 60.2074 44.3167C60.3961 44.3538 60.5964 44.3472 60.8081 44.2967C61.1789 44.2085 61.4574 44.0521 61.6437 43.827C61.8298 43.602 61.8957 43.3374 61.8415 43.0328ZM60.1202 39.1271C59.34 39.7871 59.1027 40.8838 59.0592 41.8231C60.0281 41.5996 61.9022 40.6733 61.8362 39.3418C61.7885 38.3832 60.7577 38.5884 60.1202 39.1271ZM55.9168 43.9832C55.7738 43.1217 55.8144 42.288 56.0187 41.4874C56.2231 40.6873 56.5573 39.9562 57.0212 39.296C57.4852 38.6356 58.0571 38.063 58.7368 37.5789C59.8 36.8213 61.1925 36.3208 62.4677 36.3016C63.5405 36.2858 64.7927 36.6946 64.9561 37.8994C65.1507 39.3356 64.3571 40.3466 63.2909 41.1519C64.6368 41.2686 65.0257 42.1043 64.6425 43.417C64.5167 43.8477 64.2343 44.2394 63.8886 44.6226C63.5428 45.006 63.1021 45.3517 62.5665 45.6599C62.0306 45.9679 61.4239 46.2027 60.7462 46.364C60.0894 46.5203 59.484 46.5769 58.9299 46.5336C58.3756 46.4903 57.8887 46.3599 57.4691 46.1424C57.0494 45.9249 56.7078 45.6339 56.4441 45.2699C56.1805 44.9056 55.9988 44.4775 55.9168 43.9832Z" fill="#0280CA"/>
<path fill-rule="evenodd" clip-rule="evenodd" d="M42.5331 45.3549C43.3729 45.1111 44.0403 44.8757 44.5353 44.6483C45.0301 44.4211 45.2534 44.1709 45.2047 43.8979C45.1748 43.73 45.0517 43.6279 44.8354 43.5917C44.6193 43.5556 44.2623 43.5967 43.7645 43.7152C43.4996 43.7783 43.2351 43.8577 42.9706 43.9535C42.7061 44.0493 42.4665 44.1445 42.2516 44.2396C41.9943 44.3446 41.7442 44.4588 41.5012 44.5824L41.1531 42.6292C41.3798 42.4767 41.6499 42.3193 41.9632 42.1572C42.2274 42.0287 42.5528 41.8883 42.9397 41.7359C43.3266 41.5837 43.7743 41.447 44.2825 41.326C45.5323 41.0285 46.4869 40.9956 47.1465 41.2272C47.8061 41.4589 48.1975 41.9212 48.321 42.6143C48.3734 42.9084 48.3023 43.2674 48.1073 43.6915C47.9124 44.1155 47.557 44.553 47.0413 45.0043C47.4699 45.0555 47.8214 45.1853 48.0959 45.3937C48.3706 45.6019 48.5414 45.8951 48.6088 46.2731C48.6837 46.6932 48.6382 47.1035 48.4721 47.5043C48.3062 47.905 48.0497 48.278 47.7029 48.6233C47.356 48.9687 46.941 49.2726 46.4578 49.5353C45.9747 49.7982 45.4577 49.9951 44.907 50.1262C44.1974 50.2951 43.5999 50.3798 43.1141 50.3806C42.6284 50.3813 42.2348 50.3407 41.9334 50.2593C41.5768 50.18 41.2846 50.0578 41.0566 49.8932L41.7281 47.9929C41.9518 48.071 42.1991 48.1271 42.4701 48.1611C42.6971 48.1947 42.9616 48.2083 43.2641 48.202C43.5666 48.1957 43.8873 48.1523 44.2262 48.0717C44.6605 47.9683 45.0158 47.8098 45.2924 47.5961C45.5689 47.3825 45.6887 47.1706 45.6512 46.9607C45.6175 46.7715 45.4248 46.6669 45.0735 46.6466C44.7221 46.6263 44.2763 46.6804 43.7361 46.809L43.5614 46.8505C43.3235 46.9399 43.0827 47.0137 42.8391 47.0717L42.5331 45.3549Z" fill="#0280CA"/>
<path fill-rule="evenodd" clip-rule="evenodd" d="M30.9066 55.1167C31.1484 55.0482 31.4064 54.9319 31.6808 54.7681C31.9553 54.6043 32.233 54.4123 32.5139 54.1922C32.7949 53.972 33.0685 53.7264 33.3347 53.4549C33.601 53.1836 33.8522 52.9049 34.0883 52.6189C34.1946 52.473 34.257 52.2803 34.2751 52.0406C34.293 51.8011 34.2768 51.5396 34.2262 51.2559C34.1682 50.9305 34.0728 50.581 33.9399 50.2075C33.8073 49.8341 33.6501 49.4638 33.4688 49.0964C33.2874 48.7292 33.0955 48.3807 32.8934 48.0512C32.6912 47.7217 32.4882 47.436 32.2853 47.1944C32.082 46.9526 31.8887 46.766 31.7051 46.6346C31.5217 46.503 31.361 46.4537 31.2234 46.4865C31.1704 46.4991 31.0915 46.5206 30.9864 46.5511C30.8814 46.5816 30.7769 46.6147 30.6729 46.6504C30.5583 46.6887 30.4268 46.7252 30.2785 46.7606L29.9922 45.154C30.366 45.0212 30.7292 44.8911 31.0818 44.7633C31.3834 44.6586 31.696 44.5541 32.0195 44.4498C32.3433 44.3453 32.6268 44.2642 32.8704 44.2062C33.2305 44.1205 33.5974 44.181 33.9709 44.3875C34.3445 44.5942 34.6992 44.912 35.0351 45.3411C35.371 45.7702 35.6706 46.29 35.9341 46.9005C36.1975 47.5111 36.3937 48.1787 36.5229 48.9032C36.5378 48.9872 36.5498 49.0693 36.5585 49.1491C36.5672 49.2291 36.5789 49.3112 36.5939 49.3952C36.7645 48.7416 36.8844 48.0974 36.9533 47.4625C37.0224 46.8276 37.0634 46.2376 37.0767 45.6927C37.0899 45.1477 37.0888 44.6608 37.0731 44.2321C37.0574 43.8035 37.0449 43.4698 37.0355 43.2313L40.3997 42.5948C40.408 42.8883 40.3685 43.3329 40.2814 43.9283C40.1942 44.5237 40.058 45.1992 39.8725 45.955C39.6871 46.7106 39.4533 47.5051 39.1712 48.3385C38.8892 49.1719 38.5625 49.9721 38.1914 50.7392C37.7942 51.5452 37.3362 52.3056 36.8177 53.02C36.2992 53.7345 35.7442 54.3839 35.1527 54.968C34.5613 55.5521 33.9391 56.056 33.2859 56.4797C32.6328 56.9033 31.9782 57.226 31.3221 57.4478L30.9066 55.1167Z" fill="#0280CA"/>
<path fill-rule="evenodd" clip-rule="evenodd" d="M24.668 49.7747C24.6544 50.194 24.6395 50.6518 24.6231 51.1483C24.6065 51.6448 24.5913 52.1629 24.5772 52.7027C24.754 52.7044 24.9538 52.6787 25.1762 52.6258C25.5363 52.54 25.8635 52.3937 26.1577 52.1868C26.4522 51.9799 26.6942 51.728 26.8843 51.431C27.0743 51.134 27.2055 50.8019 27.278 50.4343C27.3503 50.0667 27.3501 49.6783 27.2773 49.2687C27.2267 48.9851 27.1068 48.7454 26.9173 48.5497C26.7279 48.354 26.4161 48.3078 25.9818 48.4111C25.7594 48.4641 25.5683 48.5534 25.4086 48.679C25.2487 48.8046 25.1177 48.937 25.0158 49.0762C24.9136 49.2155 24.8357 49.3517 24.7821 49.485C24.7286 49.6181 24.6903 49.7146 24.668 49.7747ZM21.5176 49.6133C21.5148 49.258 21.5044 49.0281 21.4857 48.9231C21.4726 48.8495 21.4546 48.8101 21.4314 48.8046C21.4084 48.7992 21.3809 48.8002 21.3493 48.8078C21.2963 48.8204 21.2199 48.8412 21.1202 48.8704C21.0206 48.8996 20.924 48.931 20.8306 48.9641C20.7159 49.0023 20.5951 49.0365 20.468 49.0667L20.1816 47.4602C20.5554 47.3274 20.9187 47.1972 21.2713 47.0694C21.5727 46.9648 21.8855 46.8603 22.209 46.7559C22.5326 46.6514 22.8163 46.5703 23.0599 46.5123C23.5789 46.3888 23.9646 46.3545 24.2173 46.4093C24.4699 46.464 24.6271 46.6647 24.6889 47.0112C24.7001 47.0742 24.7054 47.2126 24.7049 47.4262C24.7042 47.6397 24.7013 47.917 24.6956 48.2576L24.7434 48.2462C24.7869 47.8089 24.9119 47.396 25.1187 47.0075C25.2924 46.6815 25.5569 46.3531 25.912 46.0224C26.2671 45.6915 26.757 45.4517 27.3818 45.303C27.9325 45.1719 28.3964 45.1573 28.7733 45.2593C29.1504 45.361 29.4594 45.531 29.7005 45.7691C29.9418 46.0073 30.1281 46.2942 30.2597 46.6295C30.3912 46.9649 30.4859 47.2954 30.5439 47.6209C30.6806 48.3875 30.6614 49.1473 30.4866 49.9005C30.3116 50.6536 29.992 51.3537 29.5278 52.0006C29.0635 52.6475 28.4608 53.2151 27.7198 53.7034C26.9789 54.1918 26.1158 54.5531 25.1309 54.7876C25.0143 54.8153 24.9052 54.8387 24.8037 54.8573C24.7022 54.876 24.5505 54.8966 24.4552 54.9193C24.4278 56.1469 24.3363 57.6443 24.3132 58.8681L21.1271 59.7971C21.1995 57.9736 21.2914 56.0451 21.3412 54.544L21.5176 49.6133Z" fill="#0280CA"/>
<path fill-rule="evenodd" clip-rule="evenodd" d="M16.148 50.1936C16.0277 50.2003 15.9163 50.2104 15.8138 50.2237C15.7114 50.2372 15.6071 50.2565 15.5012 50.2818C15.1411 50.3674 14.8151 50.5053 14.5233 50.6952C14.2314 50.8851 13.9882 51.1153 13.7935 51.386C13.5989 51.6568 13.463 51.9628 13.3858 52.3042C13.3087 52.6454 13.3047 53.0104 13.3739 53.3988C13.4394 53.7663 13.5675 54.067 13.7582 54.3008C13.949 54.5345 14.2614 54.5997 14.6956 54.4964C14.8967 54.4485 15.0782 54.3669 15.2399 54.2519C15.4017 54.1368 15.5392 54.0109 15.6529 53.8744C15.7666 53.7379 15.8586 53.6039 15.9289 53.4721C15.9994 53.3404 16.0502 53.2381 16.0812 53.1649L16.148 50.1936ZM19.15 55.9813C19.1352 56.6416 19.025 57.2616 18.8191 57.8415C18.6135 58.4214 18.3098 58.9479 17.9084 59.4211C17.5068 59.8943 17.0116 60.305 16.4222 60.6534C15.8329 61.0016 15.1411 61.2701 14.3468 61.4592C13.7219 61.608 13.1738 61.6919 12.7024 61.7111C12.2312 61.7303 11.8316 61.7186 11.5038 61.6762C11.1318 61.6334 10.803 61.5529 10.517 61.435L11.1464 59.2984C11.3576 59.3686 11.6083 59.4128 11.8987 59.4312C12.1341 59.4517 12.4187 59.4524 12.7519 59.4333C13.0852 59.4141 13.4532 59.3568 13.8555 59.261C14.2052 59.1777 14.5219 59.0504 14.806 58.8787C15.09 58.7071 15.328 58.478 15.5199 58.1916C15.7117 57.9052 15.8521 57.5625 15.9411 57.1637C16.0301 56.7649 16.0586 56.29 16.0266 55.7394L16.0452 54.6347L15.9816 54.65C15.9505 55.0953 15.8421 55.5097 15.6565 55.8931C15.575 56.0549 15.4771 56.2177 15.3627 56.3817C15.2486 56.5457 15.1055 56.703 14.9336 56.8534C14.7616 57.0038 14.5647 57.1381 14.3431 57.2567C14.1213 57.3751 13.8621 57.4696 13.5654 57.5403C13.0254 57.6688 12.5527 57.68 12.1474 57.574C11.7421 57.468 11.3985 57.2898 11.1165 57.0395C10.8344 56.7891 10.612 56.4863 10.4494 56.1309C10.2867 55.7755 10.1725 55.414 10.107 55.0465C9.98165 54.343 10.0118 53.6298 10.1977 52.9068C10.3834 52.184 10.71 51.5069 11.1771 50.8758C11.6443 50.2446 12.2484 49.6849 12.9893 49.1966C13.7303 48.7083 14.5932 48.3468 15.5782 48.1124C16.1819 47.9687 16.7118 47.8754 17.1678 47.8327C17.6238 47.7897 18.0067 47.7698 18.3164 47.7727C18.6827 47.7839 18.9971 47.8131 19.2594 47.8601L19.15 55.9813Z" fill="#0280CA"/>
</svg>
