<svg width="170" height="170" viewBox="0 0 170 170" fill="none" xmlns="http://www.w3.org/2000/svg">
<g id="lets-icons:video-light">
<g id="Group">
<path id="Vector" d="M114.828 78.6675L68.9707 55.7317C67.6744 55.0829 66.2336 54.7766 64.7855 54.8416C63.3373 54.9067 61.9298 55.3411 60.6968 56.1034C59.4639 56.8658 58.4464 57.9308 57.741 59.1973C57.0357 60.4637 56.666 61.8895 56.667 63.3392V106.661C56.666 108.11 57.0357 109.536 57.741 110.803C58.4464 112.069 59.4639 113.134 60.6968 113.897C61.9298 114.659 63.3373 115.093 64.7855 115.158C66.2336 115.223 67.6744 114.917 68.9707 114.268L114.828 91.3325C116.003 90.7436 116.991 89.8394 117.682 88.721C118.372 87.6027 118.738 86.3143 118.738 85C118.738 83.6857 118.372 82.3973 117.682 81.2789C116.991 80.1606 116.003 79.2564 114.828 78.6675Z" stroke="#F8FAFC" stroke-width="2" stroke-linecap="round" stroke-linejoin="round"/>
<path id="Vector_2" d="M85 148.75C120.208 148.75 148.75 120.208 148.75 85C148.75 49.7918 120.208 21.25 85 21.25C49.7918 21.25 21.25 49.7918 21.25 85C21.25 120.208 49.7918 148.75 85 148.75Z" stroke="#F8FAFC" stroke-width="2"/>
</g>
</g>
</svg>
