<svg width="24" height="24" viewBox="0 0 24 24" fill="none" xmlns="http://www.w3.org/2000/svg">
<path d="M13.4707 5.45004C13.6113 5.30959 13.8019 5.2307 14.0007 5.2307C14.1994 5.2307 14.39 5.30959 14.5307 5.45004L20.7807 11.7C20.9211 11.8407 21 12.0313 21 12.23C21 12.4288 20.9211 12.6194 20.7807 12.76L14.5307 19.01C14.439 19.1088 14.3224 19.1809 14.1931 19.219C14.0639 19.257 13.9268 19.2594 13.7963 19.226C13.6657 19.1927 13.5466 19.1247 13.4515 19.0293C13.3563 18.9339 13.2887 18.8147 13.2557 18.684C13.2222 18.5537 13.2246 18.4167 13.2624 18.2875C13.3002 18.1584 13.3722 18.0418 13.4707 17.95L18.4407 12.98L4.00066 12.98C3.80175 12.98 3.61098 12.901 3.47033 12.7604C3.32968 12.6197 3.25066 12.429 3.25066 12.23C3.25066 12.0311 3.32968 11.8404 3.47033 11.6997C3.61098 11.5591 3.80175 11.48 4.00066 11.48L18.4407 11.48L13.4707 6.51004C13.3302 6.36942 13.2513 6.17879 13.2513 5.98004C13.2513 5.78129 13.3302 5.59067 13.4707 5.45004Z" fill="#9CA3AF"/>
</svg>
