<svg width="24" height="24" viewBox="0 0 24 24" fill="none" xmlns="http://www.w3.org/2000/svg">
<g id="Frame">
<path id="Vector" d="M10.7803 19.03C10.6397 19.1704 10.4491 19.2493 10.2503 19.2493C10.0516 19.2493 9.86094 19.1704 9.72032 19.03L3.47032 12.78C3.32987 12.6394 3.25098 12.4487 3.25098 12.25C3.25098 12.0512 3.32987 11.8606 3.47032 11.72L9.72032 5.47C9.81199 5.37127 9.92859 5.2991 10.0578 5.26109C10.1871 5.22307 10.3242 5.22062 10.4547 5.254C10.5852 5.28737 10.7044 5.35533 10.7995 5.45072C10.8946 5.5461 10.9623 5.66539 10.9953 5.796C11.0287 5.92637 11.0264 6.06335 10.9886 6.19251C10.9507 6.32167 10.8788 6.43826 10.7803 6.53L5.81032 11.5H20.2503C20.4492 11.5 20.64 11.579 20.7806 11.7197C20.9213 11.8603 21.0003 12.0511 21.0003 12.25C21.0003 12.4489 20.9213 12.6397 20.7806 12.7803C20.64 12.921 20.4492 13 20.2503 13H5.81032L10.7803 17.97C10.9208 18.1106 10.9997 18.3012 10.9997 18.5C10.9997 18.6987 10.9208 18.8894 10.7803 19.03Z" fill="#4C1D95"/>
</g>
</svg>
